<svg width="1600" height="1200" viewBox="0 0 1600 1200" fill="none" xmlns="http://www.w3.org/2000/svg">
  <rect width="1600" height="1200" fill="#F5F7FB"/>
  <rect x="0" y="0" width="1600" height="1200" fill="url(#paint0_linear)"/>
  <circle cx="1290" cy="178" r="280" fill="#0D47A1" fill-opacity="0.12"/>
  <circle cx="146" cy="1048" r="320" fill="#0F9D8A" fill-opacity="0.10"/>
  <path d="M1032 243C1148 298 1267 413 1339 540C1382 616 1380 687 1322 721C1256 760 1159 719 1089 670C995 604 834 493 813 387C797 305 906 183 1032 243Z" fill="#0D47A1" fill-opacity="0.10"/>
  <path d="M202 388C320 267 520 222 664 276C754 309 783 391 737 453C684 523 579 532 493 516C376 494 180 442 142 347C113 275 170 421 202 388Z" fill="#0F9D8A" fill-opacity="0.10"/>
  <rect x="165" y="188" width="1270" height="824" rx="44" fill="white" fill-opacity="0.56" stroke="#DDE6F2" stroke-width="2"/>
  <rect x="235" y="262" width="452" height="22" rx="11" fill="#0D47A1" fill-opacity="0.10"/>
  <rect x="235" y="306" width="386" height="16" rx="8" fill="#0F9D8A" fill-opacity="0.12"/>
  <rect x="235" y="414" width="512" height="146" rx="28" fill="#0D47A1" fill-opacity="0.06"/>
  <rect x="813" y="350" width="482" height="428" rx="34" fill="#0F9D8A" fill-opacity="0.08"/>
  <rect x="867" y="410" width="270" height="24" rx="12" fill="#0D47A1" fill-opacity="0.18"/>
  <rect x="867" y="456" width="356" height="18" rx="9" fill="#0D47A1" fill-opacity="0.10"/>
  <rect x="867" y="492" width="320" height="18" rx="9" fill="#0D47A1" fill-opacity="0.10"/>
  <rect x="867" y="582" width="170" height="138" rx="24" fill="white" fill-opacity="0.72"/>
  <rect x="1065" y="582" width="170" height="138" rx="24" fill="white" fill-opacity="0.72"/>
  <path d="M435 670C435 634.654 463.654 606 499 606H683C718.346 606 747 634.654 747 670V764C747 799.346 718.346 828 683 828H499C463.654 828 435 799.346 435 764V670Z" fill="white" fill-opacity="0.72"/>
  <rect x="468" y="646" width="246" height="18" rx="9" fill="#0D47A1" fill-opacity="0.16"/>
  <rect x="468" y="688" width="212" height="14" rx="7" fill="#0F9D8A" fill-opacity="0.14"/>
  <rect x="468" y="718" width="176" height="14" rx="7" fill="#0D47A1" fill-opacity="0.10"/>
  <defs>
    <linearGradient id="paint0_linear" x1="800" y1="0" x2="800" y2="1200" gradientUnits="userSpaceOnUse">
      <stop stop-color="#FFFFFF"/>
      <stop offset="1" stop-color="#EEF4FB"/>
    </linearGradient>
  </defs>
</svg>
